HIERARCHY
ROOT root
{
	OFFSET	0	13.1	24.9
	CHANNELS 6  Xposition Yposition Zposition Xrotation Yrotation Zrotation
	JOINT spine_1
	{
		OFFSET	0	9.99999	0
		CHANNELS 3  Xrotation Yrotation Zrotation
		JOINT spine_2
		{
			OFFSET	0	112	-10
			CHANNELS 3  Xrotation Yrotation Zrotation
			JOINT spine_3
			{
				OFFSET	0	206.5	19.3
				CHANNELS 3  Xrotation Yrotation Zrotation
				JOINT spine_4
				{
					OFFSET	0	110.4	14.6
					CHANNELS 3  Xrotation Yrotation Zrotation
					JOINT neck_1
					{
						OFFSET	0	71.8	-50.3
						CHANNELS 3  Xrotation Yrotation Zrotation
						JOINT neck_2
						{
							OFFSET	0	86.2	-25.8
							CHANNELS 3  Xrotation Yrotation Zrotation
							JOINT head_ee
							{
								OFFSET	0	179.8	-8.7
								CHANNELS 3  Xrotation Yrotation Zrotation
								End Site
								{
									OFFSET	1	0	0
								}
							}
						}
					}
					JOINT left_clavicle
					{
						OFFSET	-43.2	22.4	-70.8
						CHANNELS 3  Xrotation Yrotation Zrotation
						JOINT left_shoulder
						{
							OFFSET	-93.9	-5.79999	48.7
							CHANNELS 3  Xrotation Yrotation Zrotation
							JOINT left_elbow
							{
								OFFSET	-291.4	-30.8	15.2
								CHANNELS 3  Xrotation Yrotation Zrotation
								JOINT left_lowarm_twist
								{
									OFFSET	-110.7	-3.89999	13.6
									CHANNELS 3  Xrotation Yrotation Zrotation
									JOINT left_hand
									{
										OFFSET	-110.7	-3.89999	13.6
										CHANNELS 3  Xrotation Yrotation Zrotation
										JOINT left_ee
										{
											OFFSET	-80.8	-5.10001	12.1
											CHANNELS 3  Xrotation Yrotation Zrotation
											End Site
											{
												OFFSET	1	0	0
											}
										}
									}
								}
							}
						}
					}
					JOINT right_clavicle
					{
						OFFSET	43.2	22.4	-70.8
						CHANNELS 3  Xrotation Yrotation Zrotation
						JOINT right_shoulder
						{
							OFFSET	93.9	-5.79999	48.7
							CHANNELS 3  Xrotation Yrotation Zrotation
							JOINT right_elbow
							{
								OFFSET	291.4	-30.8	15.2
								CHANNELS 3  Xrotation Yrotation Zrotation
								JOINT right_lowarm_twist
								{
									OFFSET	110.7	-3.89999	13.6
									CHANNELS 3  Xrotation Yrotation Zrotation
									JOINT right_hand
									{
										OFFSET	110.7	-3.89999	13.6
										CHANNELS 3  Xrotation Yrotation Zrotation
										JOINT right_ee
										{
											OFFSET	80.8	-5.10001	12.1
											CHANNELS 3  Xrotation Yrotation Zrotation
											End Site
											{
												OFFSET	1	0	0
											}
										}
									}
								}
							}
						}
					}
				}
			}
		}
	}
	JOINT left_hip
	{
		OFFSET	-82.8	-127.5	0.300001
		CHANNELS 3  Xrotation Yrotation Zrotation
		JOINT left_knee
		{
			OFFSET	-28.2	-396.7	2.2
			CHANNELS 3  Xrotation Yrotation Zrotation
			JOINT left_ankle
			{
				OFFSET	-11.7	-411.3	35.4
				CHANNELS 3  Xrotation Yrotation Zrotation
				JOINT left_toes
				{
					OFFSET	0	-60	-88.6
					CHANNELS 3  Xrotation Yrotation Zrotation
					JOINT left_foot_ee
					{
						OFFSET	-22.5	-16.5	-42.2
						CHANNELS 3  Xrotation Yrotation Zrotation
						End Site
						{
							OFFSET	1	0	0
						}
					}
				}
			}
		}
	}
	JOINT right_hip
	{
		OFFSET	82.8	-127.5	0.300001
		CHANNELS 3  Xrotation Yrotation Zrotation
		JOINT right_knee
		{
			OFFSET	28.2	-396.7	2.2
			CHANNELS 3  Xrotation Yrotation Zrotation
			JOINT right_ankle
			{
				OFFSET	11.7	-411.3	35.4
				CHANNELS 3  Xrotation Yrotation Zrotation
				JOINT right_toes
				{
					OFFSET	0	-60	-88.6
					CHANNELS 3  Xrotation Yrotation Zrotation
					JOINT right_foot_ee
					{
						OFFSET	22.5	-16.5	-42.2
						CHANNELS 3  Xrotation Yrotation Zrotation
						End Site
						{
							OFFSET	1	0	0
						}
					}
				}
			}
		}
	}
}
MOTION
Frames: 9
Frame Time: 0.02
689.32 691.82 -614.795 -171.161 -81.103 -167.734 -0.590745 -0.275694 -1.95175 -0.588638 -0.150965 -1.96533 -0.58203 0.28538 -1.95035 -0.587338 -0.0261618 -1.97094 -20.0546 4.1285 5.51746 -20.0038 5.16415 6.84299 -0.0 0.0 -0.0 7.69126 -2.68213 14.983 3.51014 -27.2792 53.0691 3.12105 -57.0931 1.69817 27.9173 0.126015 -3.52891 -0.174167 -9.98147 -5.42382 -0.0 0.0 -0.0 8.52097 -9.89316 -16.1352 -29.9687 19.0719 -54.4585 0.400531 11.2226 -0.0393522 46.8654 0.753655 5.77465 7.93561 20.0161 -49.0987 0.0 0.0 0.0 -18.6612 32.4631 -1.58438 -4.20377 0.150112 0.627544 30.6684 -29.1828 -4.84063 -0.554032 0.0 0.0 -0.0 0.0 -0.0 33.8108 21.8996 -11.4971 -8.53541 -0.256202 -1.28366 -7.46584 3.38281 -1.1338 -1.22885 0.0 0.0 0.0 0.0 0.0 
705.328 688.485 -611.68 -169.974 -82.1472 -166.66 -0.680611 -0.41668 -2.20894 -0.677938 -0.275311 -2.23096 -0.665193 0.225758 -2.23652 -0.67215 -0.1302 -2.24411 -18.3504 4.04433 6.03776 -18.2705 4.54395 7.19122 -0.0 0.0 -0.0 7.07192 -2.78761 13.7225 3.38441 -26.6042 54.5323 2.96769 -55.7644 1.57038 28.6566 0.105918 -3.62121 -0.307744 -6.99534 -5.05147 -0.0 0.0 -0.0 8.65871 -9.08119 -16.4496 -28.5274 18.6218 -55.3611 0.309634 8.72047 -0.0236089 47.2412 0.778464 5.81586 7.44322 18.7397 -45.65 0.0 0.0 0.0 -18.3967 30.5579 -2.15865 -5.66096 0.191338 0.847368 28.8616 -30.2802 -4.67912 -2.37694 0.0 0.0 -0.0 0.0 -0.0 34.3591 21.7753 -11.8234 -10.5355 -0.288382 -1.58887 -7.95392 -5.72377 -1.18385 0.840907 -0.0 -0.0 0.0 0.0 0.0 
724.854 689.114 -605.549 -170.524 -81.6619 -167.154 -0.753998 -0.230194 -2.31819 -0.751012 -0.0822562 -2.32813 -0.745657 0.438921 -2.28788 -0.752955 0.0721867 -2.32846 -17.2401 3.94775 6.27475 -17.1456 4.09686 7.31921 -0.0 0.0 -0.0 6.60125 -2.70352 12.7713 3.07553 -25.5517 56.8276 2.82682 -54.4583 1.45482 28.0158 0.123406 -3.54123 -0.628966 -2.79004 -5.41336 -0.0 0.0 -0.0 8.8278 -8.06057 -16.8402 -27.6207 18.3989 -55.9187 0.224199 6.33755 -0.0124121 46.5192 0.731041 5.73654 5.95589 12.9641 -36.914 0.0 0.0 0.0 -18.0858 29.0224 -3.16692 -7.48557 0.235051 1.12395 27.6544 -30.108 -4.51163 -3.6785 0.0 0.0 -0.0 0.0 -0.0 34.9342 21.9294 -12.9009 -13.5398 -0.316655 -2.04891 -6.21465 -9.78937 -0.921328 4.05711 -0.0 -0.0 0.0 0.0 0.0 
749.323 690.718 -599.34 -168.307 -82.7066 -164.693 -0.808217 -0.319096 -2.28125 -0.805339 -0.173327 -2.29692 -0.796274 0.345121 -2.27746 -0.803512 -0.0187932 -2.30337 -16.3716 3.83339 6.22149 -16.2754 3.80169 7.18974 -0.0 0.0 -0.0 6.19796 -2.63877 11.9603 2.4667 -24.566 58.6234 2.73391 -53.5486 1.37965 27.3536 0.140536 -3.45837 -0.848968 0.0602303 -5.65201 -0.0 0.0 -0.0 9.00276 -6.89218 -17.2551 -26.0724 18.4927 -56.4525 0.212608 6.01237 -0.0111653 47.2038 0.775983 5.81177 5.81404 12.178 -36.2204 0.0 0.0 0.0 -17.8424 27.5314 -3.8936 -8.77853 0.260682 1.3207 24.795 -30.2124 -4.12929 -5.70803 0.0 0.0 -0.0 0.0 -0.0 34.3449 21.7772 -13.3586 -15.0281 -0.321717 -2.27719 -5.72115 -16.641 -0.855663 4.85549 -0.0 -0.0 0.0 0.0 0.0 
767.15 696.712 -592.366 -168.277 -82.6312 -163.987 -0.823597 -0.294149 -2.41519 -0.820362 -0.139914 -2.429 -0.81211 0.407963 -2.3986 -0.820137 0.0241464 -2.4329 -14.8978 2.96673 4.73831 -14.8408 2.84842 5.45032 -0.0 0.0 -0.0 5.64386 -2.63909 10.849 0.429413 -23.6339 60.1427 2.65795 -52.7745 1.31886 26.538 0.160318 -3.35606 -0.945678 2.43221 -5.25495 -0.0 0.0 -0.0 9.27178 -5.59436 -17.8632 -24.186 18.9138 -56.4283 0.203966 5.76965 -0.0102783 47.5486 0.798955 5.84944 4.6686 6.02632 -30.3242 0.0 0.0 0.0 -17.373 25.6715 -4.12191 -9.77161 0.27735 1.47217 16.7776 -29.5181 -2.90373 -6.85057 0.0 0.0 -0.0 0.0 -0.0 33.4188 21.7584 -14.572 -16.8585 -0.319811 -2.55801 -1.38432 -12.5052 -0.203736 7.28785 -0.0 -0.0 0.0 0.0 0.0 
793.495 698.057 -583.498 -170.384 -81.5112 -165.978 -0.894129 -0.0750404 -2.45632 -0.890775 0.0813655 -2.45612 -0.892156 0.633202 -2.37453 -0.899937 0.25036 -2.44468 -12.9086 4.0764 6.88877 -12.7824 3.4146 7.77854 -0.0 0.0 -0.0 5.24765 -2.44397 10.0644 -1.57964 -22.3642 60.6364 2.46095 -50.6305 1.16423 26.8838 0.15211 -3.39947 -0.911405 4.19562 -4.24986 -0.0 0.0 -0.0 9.49613 -4.0064 -18.4085 -22.711 19.3499 -56.6454 0.19929 5.63824 -0.00981353 47.0642 0.766741 5.79646 3.83968 0.715904 -26.3404 0.0 0.0 0.0 -16.6481 23.7172 -4.12714 -14.4912 0.320575 2.19484 15.8105 -29.6361 -2.7546 -7.26619 0.0 0.0 -0.0 0.0 -0.0 30.7598 22.1671 -16.0332 -15.473 -0.322079 -2.34545 3.56174 -15.9408 0.52117 7.88762 -0.0 -0.0 0.0 0.0 0.0 
809.352 702.323 -575.845 -170.826 -81.5098 -165.819 -0.930764 -0.120643 -2.54016 -0.927175 0.0411857 -2.54269 -0.926644 0.61506 -2.46757 -0.935075 0.217766 -2.53369 -12.1777 3.95471 6.2165 -12.0762 3.5148 7.08186 -0.0 0.0 -0.0 4.88972 -1.67143 9.38341 -3.03055 -20.8326 61.9234 2.30781 -48.8163 1.04738 25.2934 0.187688 -3.19944 -0.964891 6.46018 -3.60197 -0.0 0.0 -0.0 9.51393 -3.21614 -18.4929 -20.6903 20.4101 -57.8616 0.202543 5.72968 -0.0101357 48.4919 0.862972 5.95184 3.27232 -0.756628 -22.7522 0.0 0.0 0.0 -13.6094 18.8505 -6.43442 -19.4809 0.301454 2.95992 13.3446 -28.0297 -2.30583 -10.5758 0.0 0.0 -0.0 0.0 -0.0 29.6322 26.3379 -16.9621 -13.8001 -0.317968 -2.08883 5.11527 -9.57498 0.738723 8.57156 -0.0 -0.0 0.0 0.0 0.0 
830.197 705.043 -566.69 -175.086 -80.6838 -169.463 -1.06528 -0.0414842 -2.491 -1.06184 0.117059 -2.48859 -1.06468 0.682561 -2.39607 -1.07257 0.295702 -2.47374 -11.3211 4.13377 6.50879 -11.2088 3.55254 7.3911 -0.0 0.0 -0.0 4.45583 -0.885279 8.56287 -4.78444 -21.2741 62.2825 2.16496 -46.9964 0.941362 23.4155 0.222531 -2.96209 -0.9436 10.387 -1.7331 -0.0 0.0 -0.0 9.55591 -2.22006 -18.6341 -19.2786 21.3322 -58.6781 0.191179 5.41016 -0.00903275 46.7718 0.747519 5.76436 2.17537 -9.54589 -18.2693 0.0 0.0 0.0 -11.1205 16.8995 -7.38656 -26.1763 0.171428 3.97855 12.1503 -20.4197 -1.94344 -10.5704 0.0 0.0 -0.0 0.0 -0.0 27.5055 22.509 -17.9729 -15.0044 -0.321683 -2.27356 8.9973 -8.23135 1.28327 8.40552 -0.0 -0.0 0.0 0.0 0.0 
853.921 705.54 -560.274 -173.082 -80.0826 -167.298 -1.01463 -0.108188 -2.43438 -1.01133 0.0468909 -2.43633 -1.01111 0.600028 -2.3618 -1.01882 0.219611 -2.42687 -8.93894 5.14384 7.27393 -8.79926 4.59405 8.332 -0.0 0.0 -0.0 4.32096 0.619028 8.36613 -6.30659 -19.6257 63.2399 1.88605 -43.0501 0.743946 22.7565 0.232909 -2.87856 -0.86645 9.80501 -1.49426 -0.0 0.0 -0.0 9.77736 -0.559827 -19.1698 -16.7454 21.4951 -59.2067 0.191996 5.43314 -0.00910999 46.4631 0.727396 5.73035 1.59912 -12.9958 -15.6074 0.0 0.0 0.0 -10.9778 11.7216 -6.78333 -30.1654 0.0376942 4.57603 18.3402 -23.8015 -2.94364 -12.8069 0.0 0.0 -0.0 0.0 -0.0 26.2313 22.6547 -18.6402 -15.1216 -0.321838 -2.29155 13.7401 -6.90087 1.92658 9.49357 -0.0 -0.0 0.0 0.0 0.0 
